<?xml version="1.0" standalone="no"?>
<!DOCTYPE svg PUBLIC "-//W3C//DTD SVG 20010904//EN"
 "http://www.w3.org/TR/2001/REC-SVG-20010904/DTD/svg10.dtd">
<svg version="1.0" xmlns="http://www.w3.org/2000/svg"
 width="16.000000pt" height="16.000000pt" viewBox="0 0 16.000000 16.000000"
 preserveAspectRatio="xMidYMid meet">
<metadata>
Created by potrace 1.11, written by Peter Selinger 2001-2013
</metadata>
<g transform="translate(0.000000,16.000000) scale(0.003509,-0.003509)"
fill="#000000" stroke="none">
<path d="M2098 4555 c-2 -1 -30 -5 -63 -9 -65 -7 -96 -11 -215 -32 -14 -3 -70
-17 -125 -31 -763 -199 -1386 -808 -1604 -1567 -34 -118 -68 -288 -78 -392
-15 -136 -8 -484 11 -580 3 -12 7 -38 10 -58 13 -82 68 -299 86 -341 5 -11 24
-58 41 -105 77 -205 231 -460 388 -645 66 -77 241 -243 323 -308 169 -132 373
-249 558 -322 52 -20 104 -41 115 -45 48 -20 262 -73 341 -86 20 -3 46 -7 57
-9 102 -20 433 -27 577 -12 668 68 1285 443 1657 1004 165 251 296 566 338
813 3 19 8 42 10 50 5 16 9 50 22 160 15 124 8 478 -12 578 -2 11 -6 37 -9 58
-4 22 -8 46 -11 54 -2 8 -6 26 -9 40 -65 334 -253 712 -495 995 -66 77 -241
243 -323 308 -274 213 -610 372 -918 433 -14 3 -41 9 -60 14 -19 5 -62 12 -95
16 -33 3 -69 8 -80 11 -22 5 -431 13 -437 8z"/>
</g>
</svg>
